<svg id="Layer_1" data-name="Layer 1" xmlns="http://www.w3.org/2000/svg" xmlns:xlink="http://www.w3.org/1999/xlink" viewBox="0 0 660.72 86.23"><defs><style>.cls-1{fill:url(#linear-gradient);}.cls-2{fill:url(#linear-gradient-2);}.cls-3{fill:url(#linear-gradient-3);}.cls-4{fill:url(#linear-gradient-4);}.cls-5{fill:url(#linear-gradient-5);}.cls-6{fill:url(#linear-gradient-6);}</style><linearGradient id="linear-gradient" x1="100.66" y1="216.49" x2="35.72" y2="104" gradientUnits="userSpaceOnUse"><stop offset="0" stop-color="#4d4d4d"/><stop offset="0.61" stop-color="#f40d0d"/><stop offset="0.62" stop-color="#333"/><stop offset="0.98" stop-color="#ed1c24"/></linearGradient><linearGradient id="linear-gradient-2" x1="240.89" y1="224.48" x2="176.48" y2="112.92" xlink:href="#linear-gradient"/><linearGradient id="linear-gradient-3" x1="347.3" y1="209.61" x2="291.27" y2="112.57" xlink:href="#linear-gradient"/><linearGradient id="linear-gradient-4" x1="427.26" y1="183.66" x2="381.76" y2="104.85" xlink:href="#linear-gradient"/><linearGradient id="linear-gradient-5" x1="540.4" y1="226.5" x2="473.5" y2="110.64" xlink:href="#linear-gradient"/><linearGradient id="linear-gradient-6" x1="647.75" y1="205.37" x2="594.33" y2="112.83" xlink:href="#linear-gradient"/></defs><title>logo</title><path class="cls-1" d="M12.75,203.23v-86h21.1l34.34,46.11,34.34-46.11h21.1v86h-21.1l-.09-52.44L76.59,185.72H59.71L33.85,150.79v52.44Z" transform="translate(-12.75 -117)"/><path class="cls-2" d="M130,203.23c-.21,0-.25-.06-.11-.18l39-85.7c0-.06,0-.09.1-.09h31.12c.07,0,.11,0,.11.09l56.12,57.37q.21.18.21-.09V117.35l.22-.09h20.88a.32.32,0,0,1,.21.09v85.79l-.21.09H256.87l-56.44-57.72q-.21-.18-.21.09v57.54h-3.83q-3.1,0-6.72,0t-6.72,0h-3.72c-.08,0-.11-.06-.11-.18v-25c0-.11-.07-.17-.21-.17H164l-.1.08-11.5,25.17c0,.06,0,.09-.11.09Zm42.09-43.12c-.07,0-.09,0-.05,0a.24.24,0,0,0,.16,0h6.75a.32.32,0,0,0,.21-.09V145.24c0-.05-.05-.1-.16-.13s-.16,0-.16.13Z" transform="translate(-12.75 -117)"/><path class="cls-3" d="M283.14,117.26h71.31V135H304.24V150h50.21v17.68H304.24v17.86h54.12v17.69H283.14Z" transform="translate(-12.75 -117)"/><path class="cls-4" d="M385.47,117.26q4.53,6,8.86,11.62c.63.82,1.27,1.66,1.9,2.51s1.3,1.71,2,2.59l.11.18.11.09.1.17.21.18.11.17c.07.06.1.11.1.14s0,.07.11.13l.1.17v.09l.22.18a.21.21,0,0,0,.1.17l.11.18c.07.06.1.1.1.13s0,.08.11.13l.1.18c.07,0,.11,0,.11.09l.1.17.21.18.11.18c.07.05.11.1.11.13s0,.07.1.13l.11.18.1.08.11.18a.24.24,0,0,1,.1.17l.21.18a.33.33,0,0,1,.11.26l.21.18v.09l.11.17.21.18.1.18c.07.06.11.1.11.13s0,.07.1.13q2,2.64,4,5.15t3.53,4.62c.85-1.06,1.83-2.33,3-3.83s2.34-3.09,3.64-4.8l4-5.27q2.06-2.73,4.06-5.28c1.54-2.06,3.11-4.12,4.69-6.21s3.22-4.21,4.91-6.38h25.21l-65.83,86H368.27q5.7-7.48,11.08-14.52c1.55-2,3.13-4.05,4.75-6.16l4.75-6.2c1.54-2,3-4,4.48-5.85l3.85-5q-1.49-1.84-3.85-4.93t-5.22-6.82q-2.85-3.73-6.07-7.91t-6.28-8.23q-7.27-9.51-15.5-20.33Z" transform="translate(-12.75 -117)"/><path class="cls-5" d="M483.58,117v68.28h66.67l-3.48-7.66H494L521.56,117H541.5l39.67,86H462.48V117Zm41.14,42.94h14l-7.06-15.22Z" transform="translate(-12.75 -117)"/><path class="cls-6" d="M586.65,203.23v-86h51.17a34.53,34.53,0,0,1,11.81,2,30.85,30.85,0,0,1,9.55,5.42,26,26,0,0,1,6.43,8,20.84,20.84,0,0,1,2.38,9.77,21.24,21.24,0,0,1-1.37,7.57,25.34,25.34,0,0,1-3.8,6.68,27,27,0,0,1,7.86,8.8,22.91,22.91,0,0,1,2.79,11.17A22.32,22.32,0,0,1,671,187a26.66,26.66,0,0,1-6.85,8.45A34.27,34.27,0,0,1,654,201.11a36,36,0,0,1-12.43,2.12ZM607.75,135V150h30a9.85,9.85,0,0,0,6.45-2.16,6.6,6.6,0,0,0,2.65-5.32,6.12,6.12,0,0,0-.74-3,8.29,8.29,0,0,0-2-2.38,9.82,9.82,0,0,0-2.86-1.62,10,10,0,0,0-3.54-.62Zm0,32.73v17.86h33.84a12.68,12.68,0,0,0,4.23-.7,11,11,0,0,0,3.43-1.89,9.12,9.12,0,0,0,2.28-2.82,7.46,7.46,0,0,0,.85-3.48,8,8,0,0,0-3.13-6.37,11.58,11.58,0,0,0-7.66-2.6Z" transform="translate(-12.75 -117)"/></svg>